<?xml version="1.0" encoding="utf-8"?>
<!-- Generator: Adobe Illustrator 26.2.1, SVG Export Plug-In . SVG Version: 6.00 Build 0)  -->
<svg version="1.1" id="Capa_1" xmlns="http://www.w3.org/2000/svg" xmlns:xlink="http://www.w3.org/1999/xlink" x="0px" y="0px"
	 viewBox="0 0 494 158" style="enable-background:new 0 0 494 158;" xml:space="preserve">
<style type="text/css">
	.st0{fill:#FFFFFF;}
	.st1{fill:url(#SVGID_1_);}
	.st2{fill:#6D28D9;}
	.st3{fill:#291066;}
	.st4{fill:url(#SVGID_00000103975143336666101710000014457327553797431738_);}
	.st5{fill:url(#SVGID_00000025417027276434084910000004042803464430053801_);}
	.st6{fill:url(#SVGID_00000145055259817938642980000015186801553843446449_);}
	.st7{fill:url(#SVGID_00000098222873530542594930000012213871968542141620_);}
	.st8{fill:url(#SVGID_00000114793374187222388170000003868976817159691937_);}
	.st9{fill:url(#SVGID_00000134209995649835121670000013166371332084902824_);}
	.st10{fill:url(#SVGID_00000003098103463794431090000005927804844362109113_);}
	.st11{fill:url(#SVGID_00000117675456711127253440000003876656011191815062_);}
	.st12{fill:url(#SVGID_00000046313054136373576020000011668823720726350256_);}
	.st13{fill:url(#SVGID_00000099638201625529414200000008114544735936545942_);}
	.st14{fill:url(#SVGID_00000084501302337718152810000010766051340145410479_);}
	.st15{fill:url(#SVGID_00000034073955557505544790000006972153802035905467_);}
	.st16{fill:url(#SVGID_00000138575560314919660800000007115183887718888891_);}
	.st17{opacity:0.23;clip-path:url(#SVGID_00000033353709550658459140000002260774784953375634_);}
	.st18{fill:url(#SVGID_00000083081796100685350110000013549324233600609209_);}
	.st19{fill:url(#SVGID_00000008111684411107244370000008307905754751618689_);}
	.st20{fill:url(#SVGID_00000057860313970116657130000012352385085123483026_);}
	.st21{fill:url(#SVGID_00000126320597443140600160000003124338004380583303_);}
	.st22{fill:url(#SVGID_00000062190275006684920970000017877733353978640538_);}
</style>
<g>
	<g>
		<g>
			<g>
				<path class="st0" d="M208.7,57.3c0,22.3-15.4,36.8-39,36.8h-25.8V20.3h25.8C193.3,20.3,208.7,34.9,208.7,57.3z M169.2,81.6
					c15.6,0,24.3-8.9,24.3-24.2s-8.8-24.6-24.3-24.6h-10.5v48.8H169.2z"/>
				<path class="st0" d="M214.5,20.3h14.8V66c0,10.2,5.5,15.5,14.9,15.5c9.5,0,15-5.3,15-15.5V20.3h14.9v45.6c0,19.5-14,29-30.2,29
					s-29.5-9.5-29.5-29V20.3z"/>
				<path class="st0" d="M317.3,19.3c16.4,0,29.7,8.8,34.7,23.9h-17c-3.5-7.1-9.8-10.6-17.8-10.6c-12.9,0-22.1,9.4-22.1,24.5
					c0,14.9,9.2,24.5,22.1,24.5c7.9,0,14.3-3.5,17.8-10.7h17c-5,15.2-18.3,23.9-34.7,23.9c-21.3,0-37.5-15.6-37.5-37.7
					S296,19.3,317.3,19.3z"/>
				<path class="st0" d="M374.4,61.2v32.9h-14.8V20.3h14.8v33.1l26.9-33.1h17.9l-30.5,36.6l31.3,37.3h-18.7L374.4,61.2z"/>
				<path class="st0" d="M450.2,94.9c-15.4,0-27.2-8-27.4-22h15.9c0.4,5.9,4.3,9.8,11.2,9.8c7,0,11.1-3.7,11.1-9
					c0-16-38.1-6.4-38-33.1c0-13.3,10.8-21.4,26-21.4c15.1,0,25.5,7.7,26.5,21.1h-16.3c-0.3-4.9-4.2-8.7-10.6-8.8
					c-5.8-0.2-10.2,2.6-10.2,8.7c0,14.8,37.9,6.6,37.9,32.6C476.4,84.4,467.1,94.9,450.2,94.9z"/>
			</g>
		</g>
	</g>
	<g>
		<path class="st2" d="M297.7,107.6c8.6,0,15,4.3,17.7,11.7h-4.5c-2.1-5.1-6.7-8.3-13.2-8.3c-8.4,0-14.8,6.2-14.8,16.3
			c0,10,6.4,16.2,14.8,16.2c6.5,0,11.1-3.2,13.2-8.2h4.5c-2.7,7.3-9.1,11.5-17.7,11.5c-10.7,0-18.8-8-18.8-19.6
			S287.1,107.6,297.7,107.6z"/>
		<path class="st2" d="M337.7,146.9c-10.8,0-19-8.1-19-19.6c0-11.5,8.2-19.6,19-19.6c10.8,0,19,8.1,19,19.6
			C356.7,138.8,348.5,146.9,337.7,146.9z M337.7,143.6c8.5,0,15.1-6.2,15.1-16.3s-6.5-16.2-15.1-16.2c-8.5,0-15.1,6.2-15.1,16.2
			S329.2,143.6,337.7,143.6z"/>
		<path class="st2" d="M392.9,127.4c0,11.9-7.5,19.1-20.3,19.1h-11.4v-38.4h11.4C385.3,108.1,392.9,115.3,392.9,127.4z M372.5,143.3
			c10.9,0,16.4-6,16.4-15.9c0-10-5.6-16.1-16.4-16.1H365v32.1H372.5z"/>
		<path class="st2" d="M417.4,111.2h-16.2v14.4h14.6v3.2h-14.6v14.6h16.2v3.2h-20.1V108h20.1V111.2z"/>
		<path class="st2" d="M433.9,108.1c8.9,0,13.1,4.8,13.1,11.2c0,5.3-3,9.7-9.5,10.9l9.9,16.3h-4.6l-9.5-16.1h-7.1v16.1h-3.8v-38.4
			H433.9z M433.9,111.3h-7.7v16h7.8c6.3,0,9.1-3.4,9.1-8.1C443,114.4,440.4,111.3,433.9,111.3z"/>
		<path class="st2" d="M463.6,146.9c-7.7,0-12.8-4.4-13-10.3h4.1c0.3,3.2,2.7,7,8.9,7c5.3,0,8.5-3.1,8.5-7.1
			c0-11.3-21.1-4.2-21.1-18.6c0-5.9,4.9-10.3,12.3-10.3c7.3,0,11.7,4.1,12.4,9.3h-4.2c-0.4-2.7-3-6-8.4-6c-4.5-0.1-8.2,2.4-8.2,6.9
			c0,11.1,21.1,4.3,21.1,18.6C476,141.6,471.8,146.9,463.6,146.9z"/>
	</g>
</g>
<g>
	<g>
		<g>
			<path class="st3" d="M121.7,55.8C118.9,30.3,97.9,9.6,72.1,8.2C55.4,7.3,38.5,8,21.8,8c-2.6,0-4.8,1.1-6.6,3
				c-2,2.2-2.6,4.9-2.6,7.8c0,14.8,0,29.5,0,44.3h0c0,14.7,0,29.4,0,44.1c0,6.9,3.2,10.1,10,10.1c5.4,0,10.8,0,16.1,0
				c3.4,0,3.5-0.2,3.6-3.5c0.1-4.8,1.1-9.4,3.3-13.7c2.8-5.7,7-10.3,11.5-14.7c4.5-4.5,8.5-9.3,9.5-15.8c0.7-4.4,0.1-8.6-3.7-11.5
				c-3.7-2.7-7.5-1.9-11.4,0c-3.4,1.7-6.2,4.2-8.9,6.9c-0.5,0.5-1,1.5-2,0.8c-0.7-0.5-0.7-1.4-0.6-2.2c0.2-1.6,1.3-2.7,2.3-3.8
				c1.6-1.6,3.5-3.1,4.8-5.1c1-1.5,2.4-3.2,0.6-4.7c-1.6-1.4-3.2,0-4.4,1.2c-1.4,1.3-2.7,2.8-3.9,4.2c-2,2.3-4,4.4-6.7,5.7
				c-3,1.5-4.9,0.5-5.2-2.8c-0.5-6.4,1-12.3,5.5-17.1c11.6-12.8,27.6-13.7,42.5-4.8c12.3,7.3,16.3,19.5,15.8,33.3
				c-0.3,8.8-3,17-6.4,25c-2.5,5.7-1.7,10.4,2.1,13.3c3.8,2.9,7.7,2.6,12.9-1.4C116.5,93.7,123.9,76.7,121.7,55.8z M28.5,65.9
				c0.5-1.6,1.8-1,2.7-0.3c1.7,1.2,2.9,3,5.2,3.2c0.6,0.1,0.6,0.6,0.4,1.1c-1.1,4.2-8.5,10.1-13.3,10.2c-0.4-0.1-1.2-0.1-2-0.4
				c-1.2-0.4-1.5-1.2-0.6-2.2C24.4,74.1,27.2,70.5,28.5,65.9z"/>
		</g>
	</g>
	<linearGradient id="SVGID_1_" gradientUnits="userSpaceOnUse" x1="79.7074" y1="8.1101" x2="77.9343" y2="109.6922">
		<stop  offset="0" style="stop-color:#6D28D9"/>
		<stop  offset="1" style="stop-color:#291066"/>
	</linearGradient>
	<path class="st1" d="M121.7,55.8C118.9,30.3,97.9,9.6,72.1,8.2C60.2,7.5,48.4,7.7,36.5,7.8c-0.1,0-0.2,0.2,0,0.2
		C62.6,11.8,83.6,29.6,89,52.7c1.8,5.2,2.5,10.9,2.3,17c-0.3,8.8-3,17-6.4,25c-2.5,5.7-1.7,10.4,2.1,13.3c3.8,2.9,7.7,2.6,12.9-1.4
		C116.5,93.7,123.9,76.7,121.7,55.8z"/>
</g>
</svg>
