<?xml version="1.0" encoding="utf-8"?>
<!-- Generator: Adobe Illustrator 26.2.1, SVG Export Plug-In . SVG Version: 6.00 Build 0)  -->
<svg version="1.1" id="Capa_1" xmlns="http://www.w3.org/2000/svg" xmlns:xlink="http://www.w3.org/1999/xlink" x="0px" y="0px"
	 viewBox="0 0 499 162" style="enable-background:new 0 0 499 162;" xml:space="preserve">
<style type="text/css">
	.st0{fill:#FFFFFF;}
	.st1{fill:url(#SVGID_1_);}
	.st2{fill:#6D28D9;}
	.st3{fill:#291066;}
	.st4{fill:url(#SVGID_00000138575333567615759140000017207227400005955735_);}
	.st5{fill:url(#SVGID_00000174590832535416076590000009872884564152267905_);}
	.st6{fill:url(#SVGID_00000026875190556308099960000010085300091016866212_);}
	.st7{fill:url(#SVGID_00000147211488099451750280000011975285909101139589_);}
	.st8{fill:url(#SVGID_00000165933120981173414760000001789332073412059298_);}
	.st9{fill:url(#SVGID_00000137122110439060923310000011569412802695553434_);}
	.st10{fill:url(#SVGID_00000098901472339665815250000011414980807223911317_);}
	.st11{fill:url(#SVGID_00000034807780757463814130000006332445191369811376_);}
	.st12{fill:url(#SVGID_00000146465907973468444360000005046696613884919965_);}
	.st13{fill:url(#SVGID_00000090284630075945257730000017600004670679699329_);}
	.st14{fill:url(#SVGID_00000135663447902297500150000011126981574740632496_);}
	.st15{fill:url(#SVGID_00000005247092826164523530000005937184121234796964_);}
	.st16{fill:url(#SVGID_00000114074428849204163070000000139482003031906951_);}
</style>
<g>
	<g>
		<g>
			<path class="st0" d="M120.2,56.4c-2.5-23.1-21.6-42-45-43.3C60,12.3,44.7,13,29.5,12.9c-2.4,0-4.4,1-6,2.7
				c-1.8,2-2.3,4.5-2.3,7.1c0,13.4,0,26.8,0,40.2h0c0,13.3,0,26.7,0,40c0,6.2,2.9,9.1,9,9.2c4.9,0,9.8,0,14.6,0
				c3.1,0,3.2-0.1,3.3-3.2c0.1-4.4,1-8.5,3-12.4c2.5-5.2,6.4-9.3,10.4-13.4c4.1-4,7.7-8.4,8.7-14.3c0.7-4,0.1-7.8-3.4-10.4
				c-3.3-2.5-6.9-1.8-10.3,0c-3.1,1.6-5.7,3.8-8.1,6.2c-0.5,0.5-1,1.3-1.8,0.8c-0.7-0.5-0.7-1.3-0.5-2c0.2-1.5,1.1-2.5,2.1-3.5
				c1.5-1.5,3.1-2.8,4.3-4.6c0.9-1.3,2.2-2.9,0.5-4.3c-1.5-1.2-2.9,0-4,1.1c-1.3,1.2-2.4,2.5-3.6,3.8c-1.8,2.1-3.7,4-6.1,5.2
				c-2.7,1.4-4.5,0.4-4.7-2.5c-0.5-5.8,1-11.1,5-15.6c10.5-11.6,25-12.4,38.6-4.3C89.4,45.4,93,56.5,92.6,69
				c-0.3,8-2.7,15.5-5.8,22.7c-2.2,5.2-1.5,9.4,1.9,12.1c3.4,2.6,7,2.3,11.7-1.3C115.5,90.8,122.3,75.4,120.2,56.4z M35.6,65.6
				c0.4-1.5,1.6-0.9,2.5-0.3c1.5,1.1,2.7,2.7,4.7,2.9c0.6,0.1,0.5,0.6,0.4,1c-1,3.8-7.7,9.2-12,9.2c-0.4-0.1-1.1-0.1-1.8-0.4
				c-1.1-0.4-1.4-1.1-0.5-2C31.8,73,34.4,69.7,35.6,65.6z"/>
		</g>
		<g>
			<g>
				<path class="st0" d="M212.5,62c0,22.3-15.4,36.8-39,36.8h-25.8V24.9h25.8C197.2,24.9,212.5,39.5,212.5,62z M173,86.2
					c15.6,0,24.3-8.9,24.3-24.2s-8.8-24.6-24.3-24.6h-10.5v48.8H173z"/>
				<path class="st0" d="M218.3,24.9h14.8v45.7c0,10.2,5.5,15.5,14.9,15.5c9.5,0,15-5.3,15-15.5V24.9H278v45.6c0,19.5-14,29-30.2,29
					s-29.5-9.5-29.5-29V24.9z"/>
				<path class="st0" d="M321.1,24c16.4,0,29.7,8.8,34.7,23.9h-17c-3.5-7.1-9.8-10.6-17.8-10.6c-12.9,0-22.1,9.4-22.1,24.5
					c0,14.9,9.2,24.5,22.1,24.5c7.9,0,14.3-3.5,17.8-10.7h17c-5,15.2-18.3,23.9-34.7,23.9c-21.3,0-37.5-15.6-37.5-37.7
					S299.8,24,321.1,24z"/>
				<path class="st0" d="M378.3,65.9v32.9h-14.8V24.9h14.8v33.1l26.9-33.1H423l-30.5,36.6l31.3,37.3h-18.7L378.3,65.9z"/>
				<path class="st0" d="M454.1,99.6c-15.4,0-27.2-8-27.4-22h15.9c0.4,5.9,4.3,9.8,11.2,9.8c7,0,11.1-3.7,11.1-9
					c0-16-38.1-6.4-38-33.1c0-13.3,10.8-21.4,26-21.4c15.1,0,25.5,7.7,26.5,21.1h-16.3c-0.3-4.9-4.2-8.7-10.6-8.8
					c-5.8-0.2-10.2,2.6-10.2,8.7c0,14.8,37.9,6.6,37.9,32.6C480.2,89.1,470.9,99.6,454.1,99.6z"/>
			</g>
		</g>
	</g>
	<g>
		<path class="st0" d="M301.6,112.3c8.6,0,15,4.3,17.7,11.7h-4.5c-2.1-5.1-6.7-8.3-13.2-8.3c-8.4,0-14.8,6.2-14.8,16.3
			c0,10,6.4,16.2,14.8,16.2c6.5,0,11.1-3.2,13.2-8.2h4.5c-2.7,7.3-9.1,11.5-17.7,11.5c-10.7,0-18.8-8-18.8-19.6
			S290.9,112.3,301.6,112.3z"/>
		<path class="st0" d="M341.5,151.6c-10.8,0-19-8.1-19-19.6c0-11.5,8.2-19.6,19-19.6c10.8,0,19,8.1,19,19.6
			C360.6,143.5,352.4,151.6,341.5,151.6z M341.5,148.2c8.5,0,15.1-6.2,15.1-16.3s-6.5-16.2-15.1-16.2c-8.5,0-15.1,6.2-15.1,16.2
			S333,148.2,341.5,148.2z"/>
		<path class="st0" d="M396.7,132c0,11.9-7.5,19.1-20.3,19.1H365v-38.4h11.4C389.2,112.7,396.7,120,396.7,132z M376.3,148
			c10.9,0,16.4-6,16.4-15.9c0-10-5.6-16.1-16.4-16.1h-7.5V148H376.3z"/>
		<path class="st0" d="M421.2,115.9H405v14.4h14.6v3.2H405V148h16.2v3.2h-20.1v-38.5h20.1V115.9z"/>
		<path class="st0" d="M437.7,112.7c8.9,0,13.1,4.8,13.1,11.2c0,5.3-3,9.7-9.5,10.9l9.9,16.3h-4.6l-9.5-16.1H430v16.1h-3.8v-38.4
			H437.7z M437.7,116H430v16h7.8c6.3,0,9.1-3.4,9.1-8.1C446.8,119.1,444.2,116,437.7,116z"/>
		<path class="st0" d="M467.5,151.6c-7.7,0-12.8-4.4-13-10.3h4.1c0.3,3.2,2.7,7,8.9,7c5.3,0,8.5-3.1,8.5-7.1
			c0-11.3-21.1-4.2-21.1-18.6c0-5.9,4.9-10.3,12.3-10.3c7.3,0,11.7,4.1,12.4,9.3h-4.2c-0.4-2.7-3-6-8.4-6c-4.5-0.1-8.2,2.4-8.2,6.9
			c0,11.1,21.1,4.3,21.1,18.6C479.8,146.3,475.6,151.6,467.5,151.6z"/>
	</g>
</g>
</svg>
