<?xml version="1.0" encoding="utf-8"?>
<!-- Generator: Adobe Illustrator 26.2.1, SVG Export Plug-In . SVG Version: 6.00 Build 0)  -->
<svg version="1.1" id="Capa_1" xmlns="http://www.w3.org/2000/svg" xmlns:xlink="http://www.w3.org/1999/xlink" x="0px" y="0px"
	 viewBox="0 0 319.3 319.3" style="enable-background:new 0 0 319.3 319.3;" xml:space="preserve">
<style type="text/css">
	.st0{fill:#FFFFFF;}
	.st1{fill:url(#SVGID_1_);}
	.st2{fill:#6D28D9;}
	.st3{fill:#291066;}
	.st4{fill:url(#SVGID_00000030479328615551110780000003251457973633557388_);}
	.st5{fill:url(#SVGID_00000142860485686219044410000008637019800094087068_);}
	.st6{fill:url(#SVGID_00000068645816314821776470000002828332052514987934_);}
	.st7{fill:url(#SVGID_00000054253526771008504480000017821311402616000648_);}
	.st8{fill:url(#SVGID_00000004516290674367691270000004541268992218084793_);}
	.st9{fill:url(#SVGID_00000114068700614492683750000015458616018850100660_);}
	.st10{fill:url(#SVGID_00000077325769039515277490000015157355373622090924_);}
	.st11{fill:url(#SVGID_00000008838524589914427820000005347971830906981512_);}
	.st12{fill:url(#SVGID_00000167388466849775808130000013991252760855067550_);}
	.st13{fill:url(#SVGID_00000162352218299396386870000001090452644004094108_);}
	.st14{fill:url(#SVGID_00000015325806081623595510000016854587619072793234_);}
	.st15{fill:url(#SVGID_00000008135338381061484070000008243744541945797027_);}
	.st16{fill:url(#SVGID_00000114063577482386312980000010254220818349682061_);}
</style>
<g>
	<path class="st0" d="M288.9,144.7c-6.5-60.2-56.3-109.4-117.3-112.7c-39.5-2.1-79.3-0.5-119-0.5c-6.2,0-11.4,2.6-15.6,7.1
		C32.4,43.9,31,50.3,31,57.2c0,34.9,0,69.8,0,104.7h0c0,34.7,0,69.4,0,104.2c0,16.3,7.5,23.8,23.6,23.9c12.7,0.1,25.4,0,38.1,0
		c8.1,0,8.4-0.4,8.5-8.3c0.1-11.4,2.7-22.1,7.7-32.4c6.6-13.5,16.7-24.3,27.2-34.8c10.6-10.5,20-22,22.5-37.4
		c1.7-10.5,0.3-20.4-8.8-27.2c-8.7-6.5-17.9-4.6-26.9,0c-8.1,4.1-14.8,9.9-21.1,16.2c-1.2,1.2-2.5,3.4-4.7,2
		c-1.8-1.2-1.7-3.3-1.4-5.2c0.6-3.8,3-6.5,5.6-9.1c3.9-3.9,8.2-7.4,11.3-12c2.3-3.4,5.6-7.5,1.4-11.1c-3.8-3.2-7.5,0-10.4,2.8
		c-3.3,3.2-6.3,6.6-9.3,10c-4.6,5.4-9.5,10.4-15.9,13.6c-7,3.6-11.7,1.1-12.3-6.6c-1.2-15.2,2.5-29,12.9-40.5
		c27.3-30.2,65.2-32.3,100.6-11.3c29.1,17.3,38.5,46.1,37.4,78.6c-0.7,20.7-7,40.3-15.2,59.2c-5.8,13.5-4,24.6,5,31.5
		c8.9,6.9,18.3,6.1,30.5-3.4C276.8,234.4,294.3,194.2,288.9,144.7z M68.7,168.6c1.1-3.8,4.2-2.4,6.5-0.8c3.9,2.8,6.9,7.1,12.3,7.6
		c1.5,0.1,1.3,1.5,1,2.7c-2.5,10-20.1,23.9-31.4,24c-0.9-0.2-2.9-0.4-4.6-0.9c-2.9-0.9-3.6-2.8-1.4-5.1
		C58.8,188.1,65.4,179.5,68.7,168.6z"/>
</g>
</svg>
